<?xml version="1.0" encoding="utf-8"?>
<!-- Generator: Adobe Illustrator 22.0.1, SVG Export Plug-In . SVG Version: 6.00 Build 0)  -->
<svg version="1.1" id="Layer_1" xmlns="http://www.w3.org/2000/svg" xmlns:xlink="http://www.w3.org/1999/xlink" x="0px" y="0px"
	 viewBox="0 0 183.6 126.6" style="enable-background:new 0 0 183.6 126.6;" xml:space="preserve">
<style type="text/css">
	.st0{fill:#EBA552;}
</style>
<path class="st0" d="M94,31.8v76.5c11.9-9.4,27.4-14.6,44.3-14.6c4,0,7.6,0.2,11.5,0.9V16.3c-3.6-0.7-7.2-0.7-11.5-0.7
	C121,15.9,104.8,21.7,94,31.8L94,31.8z M138.3,98.4c-15.3,0-29.5,4.5-40.5,12.6h63.6V35h-7.2v62.5c0,0.7-0.2,1.3-0.9,1.8
	c-0.5,0.4-1.1,0.7-1.8,0.4C147.3,98.8,143.1,98.4,138.3,98.4L138.3,98.4z M85.5,111c-10.6-8.1-25.2-12.6-40-12.6
	c-4.7,0-9,0.4-13.3,1.3c-0.7,0.2-1.3,0-1.8-0.4c-0.5-0.5-0.9-1.1-0.9-1.8V35h-7.2v76H85.5L85.5,111z M89.5,108.3V31.8
	c-10.6-10.1-26.3-16-43.9-16c-4.3,0-7.9,0-11.5,0.7v78.3c3.6-0.7,7.4-0.9,11.5-0.9C62.3,93.9,78.1,99.1,89.5,108.3L89.5,108.3z"/>
</svg>
