<?xml version="1.0" encoding="utf-8"?>
<svg version="1.1" id="Layer_1" xmlns="http://www.w3.org/2000/svg" xmlns:xlink="http://www.w3.org/1999/xlink" x="0px" y="0px"
	 viewBox="0 0 504.6 126.6" style="enable-background:new 0 0 504.6 126.6;" xml:space="preserve">
<style type="text/css">
	.st0{fill-rule:evenodd;clip-rule:evenodd;fill:#EBA552;}
	.st1{fill:#FFFFFF;}
	.st2{fill:#EBA552;}
</style>
<g>
	<path class="st0" d="M90,31.8v76.5c11.9-9.4,27.4-14.6,44.3-14.6c4,0,7.6,0.2,11.5,0.9V16.3c-3.6-0.7-7.2-0.7-11.5-0.7
		C117,15.9,100.8,21.7,90,31.8L90,31.8z M134.3,98.4c-15.3,0-29.5,4.5-40.5,12.6h63.6V35h-7.2v62.5c0,0.7-0.2,1.3-0.9,1.8
		c-0.5,0.4-1.1,0.7-1.8,0.4C143.3,98.8,139.1,98.4,134.3,98.4L134.3,98.4z M81.5,111c-10.6-8.1-25.2-12.6-40-12.6
		c-4.7,0-9,0.4-13.3,1.3c-0.7,0.2-1.3,0-1.8-0.4c-0.5-0.5-0.9-1.1-0.9-1.8V35l-7.2,0v76H81.5L81.5,111z M85.5,108.3V31.8
		c-10.6-10.1-26.3-16-43.9-16c-4.3,0-7.9,0-11.5,0.7v78.3c3.6-0.7,7.4-0.9,11.5-0.9C58.3,93.9,74.1,99.1,85.5,108.3L85.5,108.3z"/>
	<g>
		<path class="st1" d="M217.7,44.9c2.9,2.5,4.4,5.6,4.4,9.3c0,2.2-0.6,4.2-1.7,5.9c-1.1,1.7-2.6,2.9-4.4,3.6
			c2.5,0.6,4.5,1.8,6.1,3.5c1.6,1.8,2.4,4,2.4,6.6c0,4.2-1.1,7.4-3.4,9.8c-2.2,2.3-5.3,3.7-9.2,4.1c-2.3,0.2-6.3,0.3-12,0.3
			l-5.6-0.1c-1.3,0-2.4-0.4-3.2-1.3c-0.8-0.8-1.3-2.1-1.3-3.6l0.1-9.8l0.1-11.4c0-1.8,0-4.4-0.1-7.8c-0.1-3.4-0.1-6-0.1-7.7
			c0-1.3,0.3-2.4,1-3.2c0.7-0.8,1.6-1.4,2.8-1.5c2.2-0.3,6.5-0.4,13-0.4C211.1,41.3,214.8,42.5,217.7,44.9z M211.2,50.9
			c-1.2-0.9-2.8-1.4-4.7-1.5h-2.1h-3.1h-2v11.8c2.2,0,4.7,0,7.2-0.1c2,0,3.6-0.6,4.7-1.7c1.2-1.1,1.8-2.7,1.8-4.6
			C213.1,53.1,212.4,51.8,211.2,50.9z M199.3,68.8l0.1,11.4c0.7,0,3.3,0.1,7.9,0.1c2.2,0,4.1-0.6,5.5-1.5c1.4-1,2.1-2.4,2.1-4.3
			c0-3.8-2.6-5.7-7.8-5.7L199.3,68.8z"/>
		<path class="st1" d="M249.5,56.3c4.2,0.6,7.4,2.5,9.6,5.5c2.2,3.1,3.3,6.5,3.3,10.4c0,4.8-1.6,8.7-4.8,11.8
			c-3.2,3.1-7.3,4.6-12.2,4.6c-4.5,0-8.2-1.4-11.4-4.3s-4.7-6.6-4.7-11.1c0-5.1,1.6-9.3,4.8-12.4c3.2-3.1,7.6-4.8,13.1-4.9
			C248.2,55.9,249,56,249.5,56.3z M251.2,66.5c-1.3-1.6-3-2.4-5.1-2.4c-2.3,0.1-4.1,0.9-5.4,2.5c-1.3,1.6-2,3.8-2,6.6
			c0,2.1,0.7,3.9,2,5.3c1.4,1.4,2.9,2.1,4.6,2.1c2.2,0,4-0.8,5.5-2.4c1.5-1.6,2.3-3.7,2.3-6.2C253.1,69.9,252.5,68.1,251.2,66.5z"/>
		<path class="st1" d="M287.4,56.3c4.2,0.6,7.4,2.5,9.6,5.5c2.2,3.1,3.3,6.5,3.3,10.4c0,4.8-1.6,8.7-4.8,11.8
			c-3.2,3.1-7.3,4.6-12.2,4.6c-4.5,0-8.2-1.4-11.4-4.3s-4.7-6.6-4.7-11.1c0-5.1,1.6-9.3,4.8-12.4c3.2-3.1,7.6-4.8,13.1-4.9
			C286.1,55.9,286.9,56,287.4,56.3z M289.1,66.5c-1.3-1.6-3-2.4-5.1-2.4c-2.3,0.1-4.1,0.9-5.4,2.5c-1.3,1.6-2,3.8-2,6.6
			c0,2.1,0.7,3.9,2,5.3c1.4,1.4,2.9,2.1,4.6,2.1c2.2,0,4-0.8,5.5-2.4c1.5-1.6,2.3-3.7,2.3-6.2C291,69.9,290.4,68.1,289.1,66.5z"/>
		<path class="st1" d="M334.2,81.4c0.7,0.9,1.1,1.7,1.1,2.6c0,1.1-0.5,2.1-1.5,3c-1,0.9-2.1,1.4-3.3,1.4c-1.2,0-2.4-0.8-3.7-2.3
			l-8.3-10.4l-2.3,2.3l-0.1,6.2c-0.1,2.8-1.6,4.3-4.5,4.3c-1.5,0-2.6-0.4-3.4-1.2c-0.8-0.8-1.2-1.9-1.2-3.4l0.1-7V46.6
			c0-0.4,0-1.1,0-2.3c0-1.1,0-1.9,0-2.3c0-1.3,0.4-2.3,1.4-3c1-0.7,2.1-1.1,3.4-1.1c3.2,0,4.7,1.4,4.7,4.1c0,3.3,0,8.2-0.1,14.6
			c-0.1,6.4-0.2,10.2-0.2,11.6l10-10.3c1.3-1.3,2.6-2,3.8-2c1.1,0,2.1,0.5,3.1,1.5c1,1,1.5,2,1.5,3.1c0,1-0.5,1.9-1.4,2.8
			c-0.9,0.9-2.3,2.2-4.2,4c-1.9,1.8-3.2,3-3.9,3.7L334.2,81.4z"/>
		<path class="st2" d="M343.2,42.3c1-0.7,2.2-1.1,3.6-1.1c3,0,4.5,1.4,4.5,4.1c0,1.5,0,6.1-0.1,13.9c0,2.7-0.1,6.8-0.1,12.3v8.3
			c3.3,0,5.4,0,6.3-0.1l9.2-0.3c1.4,0,2.4,0.3,3,1c0.6,0.7,1,1.7,1,3c0,3.2-1.4,4.7-4.2,4.7l-7.7-0.1c-4.1,0-7.2,0-9.1,0.1
			c-3,0.1-5-0.1-6.2-0.8c-1.1-0.7-1.8-2.1-2-4.2c-0.1-0.9-0.1-1.8-0.1-2.6c0-1.3,0.1-3.8,0.2-7.6c0.1-3.8,0.2-6.7,0.2-8.8
			c0-2.1,0-5.3,0-9.6c0-4.4,0-7.5,0-9.3C341.8,44,342.3,43,343.2,42.3z"/>
		<path class="st2" d="M407.2,76.6c0,1.8,0.1,4.4,0.3,7.9c0,2.6-1.6,3.9-4.8,3.9c-1.1,0-2-0.4-2.6-1.1c-0.6-0.7-1.1-1.9-1.5-3.6
			c-2,3.3-5,5-9.2,5c-4.5,0-8.2-1.5-11-4.4c-2.8-2.9-4.2-6.6-4.2-11.1c0-5,1.5-9.1,4.6-12.3c3.1-3.1,6.9-4.7,11.5-4.7
			c3.8,0,6.6,1.4,8.5,4.3c0.2-0.9,0.4-1.6,0.6-2.1c0.7-1.3,1.9-1.9,3.6-1.9c2.9,0,4.4,1.5,4.4,4.5l-0.1,5.4L407.2,76.6z M385.6,78.4
			c1.3,1.5,3,2.2,4.9,2.2c2.2,0,4-0.8,5.5-2.3c1.5-1.5,2.2-3.5,2.2-6c0-2.5-0.7-4.5-2.2-6c-1.4-1.5-3.2-2.2-5.1-2.2
			c-2.2,0-3.9,0.8-5.3,2.4s-2,3.7-2,6.4C383.6,75.1,384.3,76.9,385.6,78.4z"/>
		<path class="st2" d="M415.7,61.2c0-1.7,0.4-3,1.1-3.8s1.9-1.2,3.6-1.2c2.5,0,3.9,1.1,4.3,3.4l0.1,1.9c0.7-1.7,1.9-3,3.8-4
			c1.8-1,3.7-1.5,5.7-1.5c3.9,0,6.9,1.2,9,3.6s3.2,5.8,3.2,10.2c0,0.9,0,2.2,0,3.9c0,1.7,0,3.3,0,4.7V84c0,2.9-1.7,4.3-5,4.3
			c-1.3,0-2.4-0.3-3.2-1c-0.8-0.7-1.2-1.7-1.2-3c0-1.1,0-3.1,0.1-5.8c0-2.8,0.1-4.9,0.1-6.2c0-2.6-0.4-4.6-1.1-6
			c-0.7-1.4-2.1-2.2-4-2.2c-2.8,0-4.6,0.8-5.5,2.5c-0.9,1.7-1.4,4.4-1.4,7.9l0.1,10.1c0,1.3-0.4,2.3-1.3,2.9s-2,0.9-3.3,0.9
			c-3.2,0-4.8-1.3-4.8-3.9c0-1.1,0-3.7,0.1-7.7c0.1-4,0.1-7.5,0.1-10.6L415.7,61.2z"/>
		<path class="st2" d="M486.1,57.4v14.8c0,0.8,0,1.7,0,2.8c0,1.1,0,2.5,0.1,4.4c0,1.9,0,3.6,0,5.2c0,2.6-1.5,3.9-4.5,3.9
			c-2.2,0-3.5-0.9-4-2.7l-0.3-2.3c-2.2,3.4-5.3,5.2-9.4,5.2c-4.7,0-8.4-1.5-11.1-4.5c-2.7-3-4.1-6.7-4.1-10.9
			c0-4.8,1.5-8.9,4.6-12.1c3.1-3.3,7-4.9,11.7-4.9c3.4,0,6,1.2,7.8,3.6L476.7,43c0-3.3,1.5-4.9,4.6-4.9c1.6,0,2.8,0.3,3.7,1
			c0.9,0.7,1.3,1.8,1.2,3.4L486.1,57.4z M464.2,78.3c1.4,1.5,3.1,2.2,5.1,2.2c2.2,0,4-0.7,5.5-2.2c1.5-1.5,2.2-3.4,2.2-5.8
			c0-2.6-0.7-4.6-2.1-6.1c-1.4-1.5-3.1-2.2-5.2-2.2c-2.2,0-4,0.8-5.5,2.3c-1.4,1.6-2.2,3.6-2.2,6.3C462.1,75,462.8,76.8,464.2,78.3z
			"/>
	</g>
</g>
</svg>
