<svg width="1920" height="940" viewBox="0 0 1920 940" fill="none" xmlns="http://www.w3.org/2000/svg">
<path d="M735.018 547.923C659.482 297.303 887.049 236.628 1010.27 237.617C1240.87 245.579 1142.67 366.231 1328.49 455.664C1514.31 545.097 1322.57 573.763 1284.48 689.055C1246.39 804.347 1512.03 757.856 1436.86 968.159C1361.7 1178.46 951.553 1171.08 1119.3 904.417C1287.05 637.759 829.437 861.197 735.018 547.923Z" stroke="#EEEEEE" stroke-width="2"/>
<path d="M815.835 577.306C757.745 384.241 932.801 337.486 1027.59 338.241C1204.97 344.361 1129.42 437.314 1272.36 506.199C1415.29 575.085 1267.8 597.179 1238.49 685.998C1209.19 774.818 1413.52 738.987 1355.69 901.003C1297.87 1063.02 982.366 1057.35 1111.42 851.916C1240.47 646.482 888.447 818.637 815.835 577.306Z" stroke="#EEEEEE" stroke-width="2"/>
<path d="M660.199 520.476C568.537 216.025 844.734 142.302 994.29 143.497C1274.15 153.156 1154.96 299.731 1380.48 408.365C1606 516.999 1373.3 551.833 1327.06 691.893C1280.83 831.953 1603.23 775.46 1511.99 1030.94C1420.75 1286.43 922.968 1277.48 1126.58 953.528C1330.18 629.579 774.775 901.04 660.199 520.476Z" stroke="#EEEEEE" stroke-width="2"/>
<path d="M597.336 497.715C492.096 148.701 809.132 64.2111 980.805 65.5927C1302.06 76.6866 1165.25 244.704 1424.13 369.253C1683.01 493.802 1415.89 533.716 1362.83 694.27C1309.77 854.823 1679.84 790.088 1575.13 1082.95C1470.42 1375.82 899.023 1365.52 1132.72 994.178C1366.41 622.836 728.886 933.981 597.336 497.715Z" stroke="#EEEEEE" stroke-width="2"/>
<path d="M507.561 464.614C382.988 50.638 758.385 -49.6149 961.655 -47.9944C1342.03 -34.8692 1180.03 164.441 1486.54 312.149C1793.06 459.858 1476.77 507.232 1413.93 697.68C1351.08 888.128 1789.27 811.302 1665.26 1158.7C1541.25 1506.1 864.683 1493.94 1141.43 1053.44C1418.17 612.947 663.277 982.084 507.561 464.614Z" stroke="#EEEEEE" stroke-width="2"/>
<path d="M402.83 425.864C255.717 -64.2064 699.206 -182.938 939.339 -181.045C1388.7 -165.554 1197.29 70.4195 1559.37 245.246C1921.46 420.072 1547.81 476.195 1473.54 701.665C1399.28 927.135 1916.94 836.13 1770.4 1247.41C1623.85 1658.69 824.588 1644.39 1151.58 1122.87C1478.57 601.354 586.721 1038.45 402.83 425.864Z" stroke="#EEEEEE" stroke-width="2"/>
</svg>
